<svg version="1.1" xmlns="http://www.w3.org/2000/svg" xmlns:xlink="http://www.w3.org/1999/xlink" width="800px" height="800px" viewBox="0,0,256,256"><g fill="#f5f5dc" fill-rule="nonzero" stroke="none" stroke-width="1" stroke-linecap="butt" stroke-linejoin="miter" stroke-miterlimit="10" stroke-dasharray="" stroke-dashoffset="0" font-family="none" font-weight="none" font-size="none" text-anchor="none" style="mix-blend-mode: normal"><g transform="translate(0,0.00007) scale(0.54167,0.54167)"><g><g><path d="M121.104,147.726l115.204,87.467l115.196,-87.467z"></path></g></g><g><g><path d="M282.182,225.091l82.126,86.039v-148.394z"></path></g></g><g><g><path d="M108.308,162.741v148.391l82.126,-86.038z"></path></g></g><g><g><path d="M266.395,237.08l-30.087,22.843l-30.088,-22.843l-83.879,87.877h227.938z"></path></g></g><g><g><path d="M243.269,2.885c-3.846,-3.847 -10.077,-3.847 -13.922,0l-39.385,39.385l13.922,13.922l22.577,-22.577v64.847h19.692v-64.847l22.577,22.577l13.922,-13.922z"></path></g></g><g><g><path d="M99.943,86.019h31.933v-19.692h-55.703c-5.442,0 -9.846,4.404 -9.846,9.846v55.702h19.692v-31.932l38.894,38.894l13.923,-13.923z"></path></g></g><g><g><path d="M88.616,226.462h-55l22.576,-22.577l-13.922,-13.923l-39.385,39.385c-3.847,3.846 -3.847,10.077 0,13.922l39.385,39.385l13.922,-13.922l-22.576,-22.577h55z"></path></g></g><g><g><path d="M138.837,347.703l-13.923,-13.923l-38.894,38.894v-31.934h-19.693v55.703c0,5.442 4.404,9.846 9.846,9.846h55.703v-19.692h-31.933z"></path></g></g><g><g><path d="M268.731,416.424l-22.577,22.576v-64.846h-19.692v64.846l-22.577,-22.576l-13.922,13.922l39.385,39.385c1.923,1.923 4.441,2.885 6.961,2.885c2.52,0 5.038,-0.962 6.961,-2.885l39.385,-39.385z"></path></g></g><g><g><path d="M386.597,340.74v31.933l-38.894,-38.894l-13.923,13.923l38.894,38.894h-31.934v19.692h55.703c5.442,0 9.846,-4.404 9.846,-9.846v-55.702z"></path></g></g><g><g><path d="M469.731,229.347l-39.385,-39.385l-13.922,13.922l22.576,22.578h-55v19.692h55l-22.576,22.577l13.922,13.922l39.385,-39.385c3.847,-3.845 3.847,-10.075 0,-13.921z"></path></g></g><g><g><path d="M396.443,66.327h-55.703v19.692h31.933l-38.894,38.894l13.923,13.923l38.894,-38.894v31.932h19.692v-55.701c0.001,-5.442 -4.403,-9.846 -9.845,-9.846z"></path></g></g></g></g></svg>