<svg version="1.1" xmlns="http://www.w3.org/2000/svg" xmlns:xlink="http://www.w3.org/1999/xlink" width="800px" height="800px" viewBox="0,0,256,256"><g fill="#f5f5dc" fill-rule="nonzero" stroke="none" stroke-width="1" stroke-linecap="butt" stroke-linejoin="miter" stroke-miterlimit="10" stroke-dasharray="" stroke-dashoffset="0" font-family="none" font-weight="none" font-size="none" text-anchor="none" style="mix-blend-mode: normal"><g transform="scale(0.5,0.5)"><g><g><path d="M490.626,153.442c-13.697,-31.292 -33.236,-59.158 -58.073,-82.819c-3.207,-3.055 -8.28,-2.933 -11.335,0.275c-3.054,3.206 -2.931,8.28 0.275,11.333c48.024,45.751 74.473,107.464 74.473,173.769c0,132.318 -107.648,239.967 -239.967,239.967c-132.319,0 -239.966,-107.649 -239.966,-239.967c0,-132.318 107.649,-239.967 239.967,-239.967c48.336,0 94.93,14.306 134.742,41.369c3.661,2.489 8.647,1.538 11.137,-2.122c2.489,-3.662 1.538,-8.648 -2.123,-11.137c-42.482,-28.878 -92.191,-44.143 -143.756,-44.143c-68.38,0 -132.667,26.628 -181.019,74.981c-48.352,48.352 -74.981,112.639 -74.981,181.019c0,68.38 26.629,132.667 74.981,181.019c48.352,48.353 112.639,74.981 181.019,74.981c68.38,0 132.667,-26.628 181.019,-74.981c48.352,-48.352 74.981,-112.639 74.981,-181.019c0,-35.652 -7.192,-70.158 -21.374,-102.558z"></path></g></g><g><g><path d="M372.333,108.552l-154.176,71.771c-4.014,1.868 -5.753,6.638 -3.884,10.652c1.869,4.014 6.638,5.755 10.65,3.885l95.106,-44.274l-46.237,37.431l-106.107,85.896l-58.036,-25.392l81.326,-37.858c4.014,-1.87 5.753,-6.638 3.884,-10.652c-1.868,-4.014 -6.639,-5.755 -10.65,-3.885l-87.54,40.752c-4.654,2.166 -7.592,6.905 -7.474,12.035c0.115,5.02 3.149,9.538 7.748,11.55l64.802,28.35l18.979,113.873c1.168,7.041 10.702,9.046 14.613,3.075l53.836,-82.171l101.811,47.512c8.157,3.81 17.864,-2.012 18.39,-10.966l14.344,-243.849c0.015,-0.226 0.014,-0.458 0.009,-0.685c-0.16,-5.675 -6.256,-9.426 -11.394,-7.05zM190.018,360.931l-12.404,-74.428l126.369,-102.299l-96.718,108.441c-0.87,0.976 -1.516,2.204 -1.816,3.479zM207.049,358.631l11.72,-49.228l15.724,7.338zM243.371,303.191l-16.967,-7.917l83.469,-93.586l-12.073,18.428zM353.637,354.649l-95.586,-44.607l107.897,-164.684z"></path></g></g></g></g></svg>