<svg version="1.1" xmlns="http://www.w3.org/2000/svg" xmlns:xlink="http://www.w3.org/1999/xlink" width="800px" height="800px" viewBox="0,0,256,256"><g fill="none" fill-rule="none" stroke="#f5f5dc" stroke-width="1.5" stroke-linecap="round" stroke-linejoin="round" stroke-miterlimit="10" stroke-dasharray="" stroke-dashoffset="0" font-family="none" font-weight="none" font-size="none" text-anchor="none" style="mix-blend-mode: normal"><g transform="translate(0.02677,1.40752) scale(10.66667,10.66667)"><path d="M2.80408,15.4771c0,0 0.142,1.738 0.175,2.286c0.044,0.735 0.328,1.556 0.802,2.126c0.669,0.808 1.457,1.093 2.509,1.095c1.237,0.002 10.23202,0.002 11.46902,0c1.052,-0.002 1.84,-0.287 2.509,-1.095c0.474,-0.57 0.758,-1.391 0.803,-2.126c0.032,-0.548 0.174,-2.286 0.174,-2.286" fill-rule="nonzero" opacity="0.4"></path><path d="M8.49597,5.32949v-0.371c0,-1.22 0.988,-2.208 2.20803,-2.208h2.582c1.219,0 2.208,0.988 2.208,2.208l0.001,0.371" fill-rule="nonzero"></path><path d="M11.995,16.6783v-1.294" fill-rule="nonzero"></path><path d="M2.74988,8.38905v3.46705c1.918,1.265 4.216,2.151 6.738,2.502c0.302,-1.101 1.29502,-1.908 2.50202,-1.908c1.188,0 2.201,0.807 2.483,1.918c2.532,-0.351 4.839,-1.237 6.767,-2.512v-3.46705c0,-1.694 -1.363,-3.058 -3.057,-3.058h-12.36602c-1.694,0 -3.067,1.364 -3.067,3.058z" fill-rule="evenodd"></path></g></g></svg>