<svg version="1.0" xmlns="http://www.w3.org/2000/svg" preserveAspectRatio="xMidYMid meet" viewBox="480.88 443.28 2471.97 2538.42">

<g transform="translate(0.000000,3400.000000) scale(0.100000,-0.100000)" fill="#ffffff" stroke="none">
<path d="M16325 29559 c-55 -5 -163 -16 -240 -24 -77 -8 -205 -21 -285 -30 -348 -36 -408 -44 -685 -86 -366 -55 -598 -99 -998 -188 -262 -59 -333 -78 -692 -190 -33 -11 -118 -37 -190 -60 -155 -48 -554 -183 -610 -206 -22 -9 -49 -20 -60 -25 -56 -25 -177 -74 -235 -94 -36 -13 -96 -38 -135 -56 -38 -18 -108 -50 -153 -71 -46 -22 -86 -39 -87 -39 -2 0 -71 -32 -152 -71 -81 -39 -173 -82 -203 -96 -65 -29 -231 -113 -245 -123 -5 -4 -55 -31 -110 -60 -55 -29 -134 -72 -176 -96 -42 -24 -79 -44 -82 -44 -4 0 -36 -18 -72 -40 -36 -22 -67 -40 -70 -40 -5 0 -219 -130 -305 -185 -36 -23 -117 -75 -180 -115 -205 -131 -404 -263 -463 -310 -68 -52 -87 -66 -188 -137 -41 -28 -119 -89 -175 -135 -395 -326 -610 -508 -793 -672 -149 -133 -502 -480 -625 -614 -336 -368 -487 -538 -551 -622 -22 -29 -53 -69 -70 -90 -278 -349 -414 -530 -668 -888 -40 -57 -120 -180 -160 -247 -7 -11 -24 -39 -39 -62 -16 -23 -28 -44 -28 -47 0 -2 -23 -39 -50 -80 -27 -42 -50 -78 -50 -80 0 -2 -23 -42 -52 -88 -28 -46 -67 -112 -86 -148 -19 -36 -67 -123 -107 -195 -40 -71 -85 -152 -100 -180 -15 -27 -31 -54 -35 -60 -5 -5 -89 -172 -188 -370 -229 -457 -404 -858 -543 -1245 -39 -107 -83 -229 -99 -270 -116 -312 -375 -1210 -406 -1410 -9 -53 14 15 47 140 61 235 128 465 163 560 19 52 46 134 61 182 24 80 47 119 61 105 5 -5 -4 -61 -23 -132 -5 -18 -3 -18 10 -5 8 8 28 56 45 105 41 121 205 557 237 630 7 17 20 50 30 75 9 25 23 61 32 80 8 19 19 44 24 55 5 11 29 70 55 130 77 185 128 284 132 256 2 -13 -1 -28 -7 -34 -6 -6 -11 -19 -11 -29 0 -10 -4 -26 -10 -36 -9 -16 -31 -72 -86 -227 -14 -38 -29 -79 -34 -90 -5 -11 -13 -36 -19 -55 -5 -19 -28 -82 -50 -140 -22 -58 -41 -112 -41 -120 0 -9 -4 -20 -9 -25 -5 -6 -23 -57 -41 -115 -18 -58 -36 -114 -41 -125 -5 -11 -15 -45 -23 -75 -8 -30 -26 -91 -39 -135 -102 -320 -170 -574 -252 -925 -64 -278 -148 -731 -180 -975 -9 -66 -25 -181 -35 -255 -43 -300 -70 -814 -71 -1352 0 -264 3 -334 17 -428 16 -103 45 106 79 574 14 188 32 404 41 481 8 77 20 185 25 240 17 174 38 356 59 490 10 72 26 182 35 245 57 422 200 1077 348 1595 88 306 273 871 306 933 6 11 23 53 37 94 15 40 37 96 49 123 34 76 105 244 105 249 0 3 13 33 29 68 15 35 52 117 81 183 29 66 72 158 96 206 24 47 44 90 44 97 0 7 5 12 10 12 6 0 10 8 10 18 0 9 9 23 20 30 19 12 20 11 9 -10 -25 -47 -29 -58 -29 -73 0 -8 -4 -23 -10 -33 -15 -28 -127 -286 -135 -312 -4 -14 -18 -49 -31 -78 -13 -29 -24 -55 -24 -59 0 -3 -21 -60 -46 -127 -87 -226 -296 -838 -358 -1046 -70 -235 -151 -555 -210 -820 -74 -340 -186 -967 -201 -1135 -4 -38 -15 -135 -26 -215 -27 -209 -37 -316 -59 -670 -29 -481 -33 -670 -21 -970 14 -323 31 -384 31 -110 0 277 48 1093 85 1470 36 359 115 857 195 1230 17 80 35 167 41 194 8 46 48 200 99 391 12 44 35 132 51 195 17 63 41 151 54 195 13 44 44 150 69 235 122 418 264 803 480 1294 32 75 151 314 186 376 123 216 221 400 335 625 72 143 151 293 175 333 25 40 50 81 55 90 39 64 165 246 334 482 49 69 99 139 111 155 11 17 42 60 68 96 26 36 52 73 57 81 6 8 33 49 62 89 29 41 73 103 98 139 24 36 81 106 124 155 44 50 128 149 186 220 237 290 331 396 383 430 29 20 157 142 285 272 248 252 599 570 833 753 31 25 75 61 98 81 85 73 236 189 441 339 55 40 141 103 190 140 77 58 453 315 503 345 9 6 42 26 72 47 58 38 289 178 294 178 2 0 55 30 117 66 161 93 201 115 314 172 135 68 495 242 500 242 2 0 55 23 117 51 62 28 127 57 143 64 17 7 84 36 150 65 66 28 134 58 150 65 156 72 476 186 941 338 206 67 274 88 484 143 30 8 120 28 200 44 180 37 247 52 380 84 187 45 408 85 580 106 195 23 318 41 410 61 271 57 348 67 700 84 154 8 685 -8 1490 -45 464 -22 458 -21 650 -60 80 -15 204 -40 276 -54 72 -15 155 -31 185 -36 405 -68 847 -176 1489 -365 312 -91 859 -294 1195 -443 233 -103 1003 -494 1112 -565 86 -55 254 -163 300 -192 50 -31 588 -391 638 -426 79 -56 449 -336 523 -396 457 -372 625 -523 885 -798 172 -182 195 -203 260 -234 45 -22 90 -53 126 -90 88 -88 421 -518 641 -826 63 -88 180 -250 261 -361 137 -186 309 -436 309 -448 0 -6 44 -76 212 -336 30 -47 66 -105 80 -130 14 -25 56 -101 95 -170 187 -335 343 -644 483 -961 21 -48 59 -119 84 -158 26 -40 65 -120 87 -179 150 -394 161 -425 239 -682 18 -58 41 -132 51 -165 30 -92 195 -672 212 -745 46 -192 67 -283 82 -355 48 -226 56 -267 70 -350 16 -92 20 -116 55 -310 21 -117 30 -194 56 -450 8 -88 20 -180 25 -205 39 -175 56 -486 38 -655 -12 -111 -14 -488 -2 -508 2 -4 4 -190 4 -414 -1 -505 -17 -817 -57 -1088 -19 -129 -42 -312 -50 -395 -7 -72 -8 -75 -32 -75 -13 0 -16 -17 -19 -115 -4 -166 -19 -278 -69 -515 -49 -233 -54 -254 -126 -545 -95 -384 -182 -681 -288 -980 -32 -91 -90 -257 -128 -370 -62 -183 -104 -294 -147 -385 -7 -16 -39 -88 -70 -160 -141 -322 -257 -554 -415 -830 -32 -55 -79 -140 -105 -190 -27 -49 -66 -121 -87 -158 -21 -38 -38 -71 -38 -73 0 -3 -9 -17 -19 -32 -10 -15 -56 -88 -101 -162 -115 -188 -304 -470 -421 -630 -26 -36 -57 -78 -69 -95 -12 -16 -58 -79 -103 -140 -45 -60 -89 -120 -97 -132 -38 -54 -198 -262 -235 -303 -22 -26 -83 -100 -135 -165 -154 -192 -322 -380 -565 -633 -109 -113 -153 -168 -142 -178 3 -3 52 34 109 83 57 49 139 118 183 153 141 113 302 265 680 644 314 316 370 368 373 348 10 -63 -292 -495 -593 -847 -387 -453 -578 -652 -830 -865 -49 -41 -165 -144 -258 -227 -93 -84 -201 -177 -240 -207 -40 -30 -135 -105 -212 -166 -118 -93 -267 -206 -458 -347 -21 -15 -50 -38 -66 -50 -107 -84 -657 -446 -919 -604 -40 -24 -96 -59 -125 -77 -28 -18 -63 -37 -77 -43 -14 -6 -20 -13 -14 -15 6 -3 60 20 120 50 153 77 254 110 208 68 -34 -31 -175 -121 -356 -227 -56 -33 -126 -76 -218 -135 -120 -76 -122 -78 -256 -143 -55 -27 -214 -105 -354 -174 -140 -69 -279 -137 -309 -150 -84 -38 -55 -36 44 3 50 19 122 47 160 61 90 33 215 89 385 171 74 35 196 93 270 127 266 123 297 138 410 195 63 32 166 88 229 124 62 36 115 66 116 66 2 0 174 101 252 148 323 193 840 546 1134 774 41 32 110 85 154 119 44 34 131 105 194 158 62 53 143 121 180 152 334 281 887 850 1341 1380 206 239 237 279 553 714 243 335 548 815 741 1170 42 77 83 151 91 165 8 14 29 54 47 90 18 36 36 67 39 70 10 8 69 128 69 140 0 21 -16 1 -49 -62 -18 -35 -42 -81 -55 -103 -52 -95 -133 -241 -156 -284 -14 -25 -36 -62 -50 -81 -27 -38 -45 -67 -56 -90 -4 -8 -20 -34 -36 -57 -15 -23 -28 -44 -28 -48 0 -8 -43 -69 -52 -73 -5 -2 -8 -8 -8 -13 0 -13 -81 -133 -92 -137 -4 -2 -8 -9 -8 -16 0 -7 -9 -21 -20 -31 -11 -10 -20 -24 -20 -32 0 -7 -3 -13 -8 -13 -4 0 -13 -15 -21 -32 -8 -18 -17 -35 -20 -38 -3 -3 -10 -12 -16 -21 -28 -46 -100 -144 -107 -147 -4 -2 -8 -8 -8 -14 0 -10 -56 -95 -78 -117 -7 -7 -16 -10 -20 -7 -3 4 -2 10 4 14 15 10 74 99 74 111 0 6 3 11 8 11 4 0 13 13 20 28 6 16 21 38 32 50 11 12 20 24 20 26 0 3 18 29 40 58 22 29 40 59 40 66 0 6 5 12 10 12 6 0 10 5 10 11 0 5 18 36 39 68 22 32 52 80 67 107 15 27 35 63 45 79 10 17 33 57 51 90 18 33 37 67 43 77 5 9 34 60 64 115 30 54 67 117 83 140 15 23 28 44 28 48 0 3 12 24 27 48 39 62 441 878 503 1022 143 333 314 788 415 1105 178 560 172 537 225 765 87 369 133 553 151 610 11 33 24 96 29 140 12 99 27 190 46 277 8 37 24 129 35 205 23 148 32 204 48 298 20 110 32 228 41 395 10 175 24 340 40 455 44 317 32 1016 -24 1490 -9 72 -16 180 -16 240 0 140 -15 287 -46 440 -30 148 -39 200 -54 290 -14 92 -29 180 -40 235 -5 25 -19 97 -30 160 -44 237 -119 593 -160 760 -17 69 -38 154 -46 190 -22 89 -80 298 -111 395 -14 44 -29 94 -33 110 -17 67 -170 524 -190 570 -5 11 -16 40 -24 65 -26 81 -147 392 -209 535 -120 281 -197 444 -382 815 -191 382 -234 462 -407 758 -111 190 -159 275 -207 367 -21 39 -56 98 -79 133 -23 35 -42 65 -42 67 0 5 -90 137 -146 215 -26 36 -72 101 -103 145 -80 117 -372 498 -401 525 -7 7 -102 119 -126 149 -10 13 -33 40 -49 60 -17 20 -42 52 -57 71 -14 19 -38 49 -52 65 -14 17 -26 35 -26 40 0 11 76 -67 190 -195 41 -47 77 -87 80 -90 17 -16 169 -203 236 -290 380 -495 392 -512 701 -990 89 -137 155 -245 232 -383 13 -23 41 -71 61 -107 110 -188 332 -629 433 -860 10 -25 35 -77 53 -117 19 -40 34 -75 34 -77 0 -3 14 -35 30 -71 17 -36 30 -68 30 -70 0 -2 11 -28 24 -57 33 -72 120 -287 156 -387 17 -44 44 -118 61 -163 16 -46 59 -171 95 -278 35 -107 76 -229 90 -270 14 -41 34 -106 44 -145 11 -38 28 -104 40 -145 12 -41 30 -109 40 -150 10 -41 28 -109 39 -150 30 -107 126 -541 166 -754 19 -99 39 -203 45 -231 5 -27 21 -120 35 -205 14 -85 39 -220 56 -300 16 -80 38 -190 49 -245 11 -55 24 -120 29 -145 11 -48 16 -86 27 -195 8 -82 22 -129 24 -80 1 25 2 27 9 10 5 -11 11 -110 14 -220 7 -239 20 -312 30 -160 6 105 -6 363 -23 500 -6 44 -14 175 -19 290 -7 186 -19 291 -51 445 -5 25 -16 113 -25 195 -9 83 -18 157 -20 165 -7 23 -33 179 -40 240 -11 92 -55 314 -84 427 -43 163 -91 375 -91 399 0 13 -4 24 -10 24 -5 0 -10 16 -10 35 0 19 -4 35 -10 35 -5 0 -10 18 -10 40 0 22 -4 40 -10 40 -5 0 -10 16 -10 35 0 19 -4 35 -10 35 -5 0 -10 16 -10 35 0 19 5 35 10 35 6 0 10 -15 10 -34 0 -19 5 -38 10 -41 6 -3 10 -19 10 -35 0 -16 5 -32 10 -35 6 -3 10 -19 10 -35 0 -16 5 -32 10 -35 6 -3 10 -19 10 -35 0 -16 5 -32 10 -35 6 -3 10 -19 10 -34 0 -15 4 -31 9 -36 16 -17 99 -339 157 -605 52 -237 64 -301 115 -610 11 -69 24 -143 29 -165 5 -22 14 -85 20 -140 15 -144 38 -333 54 -460 19 -142 31 -327 52 -761 16 -332 16 -369 0 -650 -30 -525 -36 -625 -51 -814 -39 -495 -46 -560 -82 -810 -13 -96 -29 -204 -34 -240 -20 -141 -94 -539 -124 -665 -8 -33 -28 -125 -46 -205 -41 -190 -121 -495 -180 -691 -6 -20 -9 -43 -6 -50 3 -8 6 -5 6 8 1 12 6 25 11 28 6 3 10 15 10 26 0 10 4 27 9 37 21 40 30 69 33 95 2 15 8 27 13 27 10 -1 11 -15 1 -65 -16 -81 -23 -112 -29 -122 -4 -6 -13 -39 -21 -74 -21 -95 -46 -191 -56 -214 -4 -11 -18 -54 -30 -95 -38 -127 -181 -550 -204 -604 -19 -43 -71 -173 -117 -291 -41 -103 -49 -123 -67 -165 -6 -14 -39 -88 -73 -165 -33 -77 -74 -169 -90 -205 -17 -36 -47 -103 -67 -149 -49 -110 -275 -561 -317 -631 -18 -30 -44 -75 -57 -100 -36 -64 -162 -280 -208 -356 -22 -35 -40 -67 -40 -71 0 -4 -8 -16 -18 -27 -10 -12 -45 -64 -77 -116 -78 -125 -200 -312 -245 -375 -20 -27 -65 -90 -100 -140 -114 -160 -457 -621 -527 -706 -288 -351 -608 -703 -879 -969 -387 -378 -690 -656 -839 -770 -40 -30 -284 -227 -340 -273 -32 -27 -288 -211 -415 -300 -14 -9 -56 -40 -95 -67 -158 -114 -556 -367 -735 -468 -19 -11 -78 -44 -130 -74 -98 -57 -120 -69 -280 -157 -52 -29 -102 -56 -110 -61 -205 -116 -797 -392 -1105 -514 -38 -16 -97 -40 -130 -53 -33 -14 -89 -36 -125 -48 -36 -13 -130 -49 -210 -79 -145 -56 -657 -232 -714 -246 -17 -4 -139 -38 -271 -75 -280 -78 -704 -182 -875 -214 -366 -70 -959 -155 -1270 -181 -190 -16 -722 -29 -1245 -32 -731 -4 -688 -12 143 -27 796 -15 900 -13 1237 25 72 8 222 23 335 34 113 11 250 27 305 35 55 8 138 20 185 26 47 6 155 24 240 41 85 17 196 36 245 44 50 7 108 18 130 23 76 19 220 50 305 66 204 39 327 68 660 157 121 32 151 37 147 24 -2 -6 -14 -13 -28 -14 -13 -2 -28 -8 -33 -13 -6 -5 -20 -9 -32 -9 -13 0 -26 -5 -29 -10 -3 -6 -19 -10 -35 -10 -16 0 -32 -4 -35 -10 -3 -5 -19 -10 -35 -10 -16 0 -31 -4 -34 -9 -3 -5 -20 -11 -38 -14 -18 -2 -60 -12 -93 -21 -129 -37 -171 -48 -205 -56 -19 -5 -51 -13 -70 -19 -392 -110 -1302 -286 -1740 -336 -74 -8 -178 -22 -230 -30 -119 -19 -474 -53 -685 -65 -278 -17 -353 -32 -325 -65 18 -21 290 -28 596 -16 569 23 617 28 1399 131 164 22 881 161 1060 206 100 25 236 64 610 176 280 84 404 128 945 336 85 33 164 63 175 67 11 4 49 21 85 37 36 17 175 79 310 138 339 150 359 159 410 183 25 12 92 48 149 79 58 32 106 58 109 58 2 0 43 22 91 49 47 26 133 73 191 103 179 94 248 135 425 250 55 36 165 107 245 158 312 200 440 290 780 545 19 15 58 43 86 64 81 59 144 111 209 171 33 30 95 84 136 120 42 36 151 130 244 210 383 329 754 685 949 910 50 58 154 177 231 266 77 89 166 192 197 230 31 38 92 112 135 164 274 332 420 530 670 910 86 129 164 247 174 262 10 15 19 30 19 33 0 3 23 39 50 81 28 41 50 78 50 80 0 3 13 24 28 47 26 38 147 251 266 466 57 103 294 578 323 646 12 28 44 99 72 159 28 59 51 109 51 112 0 2 9 23 19 47 56 123 182 432 267 656 169 444 321 962 459 1571 47 207 132 631 140 700 3 30 19 134 35 230 27 165 36 234 60 440 38 331 46 424 75 960 29 511 10 1284 -46 1865 -5 61 -14 153 -19 205 -5 52 -16 147 -24 210 -9 63 -20 153 -26 200 -15 119 -44 316 -60 410 -5 30 -17 100 -25 155 -17 103 -59 330 -75 400 -5 22 -19 85 -30 140 -54 262 -138 588 -240 945 -112 388 -353 1049 -510 1396 -126 278 -183 393 -322 644 -191 345 -182 329 -286 500 -52 85 -103 170 -113 188 -170 298 -600 905 -940 1327 -162 201 -404 482 -590 685 -68 74 -165 179 -215 235 -50 55 -120 127 -155 160 -35 33 -143 135 -239 226 -96 91 -193 181 -215 200 -22 19 -92 79 -155 135 -303 265 -407 348 -700 564 -384 283 -486 351 -983 660 -140 88 -191 119 -207 127 -8 4 -75 43 -150 88 -74 45 -175 103 -225 130 -49 26 -110 60 -135 73 -25 14 -180 94 -345 177 -305 153 -475 229 -735 328 -80 31 -206 79 -280 108 -74 28 -162 62 -195 74 -128 47 -172 64 -240 90 -166 63 -498 169 -655 209 -52 13 -158 41 -235 61 -256 66 -359 92 -410 103 -27 6 -104 23 -170 37 -122 27 -356 73 -500 100 -172 31 -734 102 -1080 136 -295 28 -1446 48 -1660 28z m1665 -156 c87 -19 14 -26 -143 -14 -84 6 -254 11 -379 11 -147 0 -229 4 -233 10 -9 14 690 7 755 -7z m690 -58 c353 -50 958 -170 1280 -253 272 -71 666 -198 910 -292 30 -12 66 -25 80 -30 14 -4 81 -32 150 -60 69 -28 184 -76 255 -105 174 -71 374 -162 610 -275 406 -196 404 -195 735 -380 213 -119 232 -130 342 -196 53 -33 130 -79 170 -103 196 -118 604 -381 688 -445 52 -39 169 -130 260 -201 91 -72 190 -148 220 -170 81 -58 272 -208 370 -289 310 -257 856 -812 834 -848 -9 -13 -27 3 -355 323 -305 297 -426 409 -578 534 -40 33 -120 101 -178 150 -209 180 -760 581 -1053 767 -30 19 -120 77 -200 128 -80 51 -163 105 -185 118 -22 14 -56 35 -75 48 -45 29 -169 97 -295 164 -55 29 -134 71 -175 93 -316 168 -467 239 -723 343 -87 35 -177 73 -200 83 -23 11 -109 47 -192 80 -82 34 -170 70 -195 80 -25 11 -110 42 -190 71 -80 29 -174 63 -210 77 -35 14 -87 32 -115 40 -27 8 -86 27 -130 43 -76 27 -320 104 -470 148 -176 53 -423 116 -520 135 -44 8 -147 29 -230 45 -82 17 -208 42 -280 56 -71 14 -161 32 -200 40 -38 8 -126 24 -195 36 -202 33 -250 43 -250 52 0 13 177 9 290 -7z m7295 -4055 c3 -5 1 -10 -4 -10 -6 0 -11 5 -11 10 0 6 2 10 4 10 3 0 8 -4 11 -10z m-20195 -3400 c0 -5 -4 -10 -10 -10 -5 0 -10 5 -10 10 0 6 5 10 10 10 6 0 10 -4 10 -10z m22900 -1025 c0 -8 -4 -15 -10 -15 -5 0 -10 7 -10 15 0 8 5 15 10 15 6 0 10 -7 10 -15z m20 -65 c0 -16 -4 -30 -10 -30 -5 0 -10 14 -10 30 0 17 5 30 10 30 6 0 10 -13 10 -30z m20 -65 c0 -14 -4 -25 -10 -25 -5 0 -10 11 -10 25 0 14 5 25 10 25 6 0 10 -11 10 -25z m640 -5667 c0 -87 -76 -588 -119 -784 -49 -227 -82 -358 -138 -554 -43 -149 -153 -494 -172 -535 -5 -11 -20 -51 -34 -90 -101 -279 -154 -413 -169 -429 -4 -6 -8 -20 -8 -31 0 -12 -3 -25 -6 -28 -10 -10 -54 -120 -54 -134 0 -7 -4 -13 -10 -13 -5 0 -10 -7 -10 -15 0 -8 -4 -23 -9 -33 -5 -9 -14 -30 -21 -47 -7 -16 -16 -38 -21 -47 -5 -10 -9 -25 -9 -33 0 -8 -4 -15 -10 -15 -5 0 -10 -8 -10 -18 0 -10 -9 -37 -20 -60 -11 -22 -20 -46 -20 -52 0 -5 -4 -18 -9 -28 -9 -17 -24 -53 -44 -102 -5 -14 -14 -36 -20 -50 -5 -14 -13 -34 -17 -45 -4 -11 -12 -31 -18 -45 -5 -14 -20 -50 -32 -80 -13 -30 -51 -116 -85 -190 -34 -74 -72 -157 -85 -185 -54 -121 -212 -428 -330 -645 -54 -98 -217 -388 -230 -410 -41 -64 -199 -316 -229 -363 -82 -132 -265 -404 -290 -432 -15 -16 -52 -65 -82 -108 -85 -124 -350 -479 -402 -538 -219 -256 -279 -326 -327 -385 -191 -233 -768 -829 -1000 -1034 -52 -46 -122 -108 -155 -139 -33 -31 -96 -85 -139 -121 -43 -36 -98 -81 -121 -100 -23 -19 -62 -51 -86 -70 -24 -19 -82 -67 -129 -106 -47 -39 -151 -120 -231 -181 -132 -100 -179 -134 -299 -218 -19 -14 -49 -35 -66 -47 -68 -50 -244 -168 -249 -168 -3 0 -22 -11 -43 -24 -34 -21 -225 -135 -297 -176 -49 -28 -125 -74 -215 -130 -124 -77 -244 -147 -337 -196 -213 -112 -256 -134 -261 -129 -6 6 20 27 58 47 27 14 249 156 290 185 14 10 45 29 70 42 25 13 47 27 50 30 3 3 25 17 50 30 64 34 344 202 350 210 3 3 12 11 21 16 10 6 38 25 63 43 26 17 49 32 52 32 3 0 40 26 82 58 42 32 125 92 184 133 59 41 122 85 141 99 85 64 308 233 364 277 34 26 88 68 120 93 32 25 99 79 148 120 50 41 115 95 145 120 412 334 1078 985 1385 1350 22 27 74 87 115 135 41 49 90 106 108 129 19 23 50 59 71 81 78 84 238 293 407 529 27 38 76 105 109 150 55 74 296 423 320 464 6 9 24 37 40 61 48 71 56 83 133 208 79 127 201 335 292 497 9 17 29 54 45 81 123 218 425 815 425 839 0 5 88 196 100 218 6 10 10 25 10 33 0 8 5 15 10 15 6 0 9 3 8 8 -3 7 17 65 33 94 5 10 9 25 9 33 0 8 5 15 10 15 6 0 10 11 10 25 0 14 5 25 10 25 6 0 10 7 10 15 0 8 5 25 12 38 24 48 28 57 28 77 0 11 5 20 10 20 6 0 10 11 10 25 0 14 4 25 8 25 4 0 14 21 21 48 7 26 20 63 29 82 8 19 14 36 13 38 -1 1 5 15 13 30 8 15 23 54 34 87 11 33 44 125 72 205 111 312 269 835 320 1065 10 44 30 125 44 180 13 55 35 145 46 200 12 55 26 116 30 135 18 83 39 188 45 230 4 25 15 88 25 140 10 52 23 128 30 168 13 79 30 96 30 30z m-2540 -5178 c0 -5 -4 -10 -10 -10 -5 0 -10 5 -10 10 0 6 5 10 10 10 6 0 10 -4 10 -10z m-4140 -4194 c0 -3 -4 -8 -10 -11 -5 -3 -10 -1 -10 4 0 6 5 11 10 11 6 0 10 -2 10 -4z" fill="#ffffff"/>
<path d="M16534 24475 c31 -68 73 -129 121 -175 85 -81 184 -227 257 -381 149 -310 237 -807 209 -1169 -12 -153 -40 -348 -62 -425 -48 -170 -145 -382 -245 -537 -26 -40 -72 -111 -103 -158 -65 -100 -178 -244 -276 -350 -185 -200 -534 -548 -749 -746 -72 -65 -189 -175 -261 -244 -72 -69 -179 -169 -238 -223 -129 -119 -372 -388 -492 -547 -22 -29 -52 -67 -66 -84 -43 -52 -144 -210 -192 -298 -91 -169 -143 -334 -187 -592 -19 -110 -21 -154 -17 -295 12 -394 135 -693 446 -1086 134 -169 337 -357 577 -535 115 -85 395 -270 409 -270 1 0 55 -32 120 -70 138 -83 514 -272 635 -320 158 -62 185 -71 454 -161 148 -49 280 -89 293 -89 22 0 24 3 17 32 -10 48 -41 84 -192 222 -224 204 -383 377 -565 613 -99 129 -205 319 -267 478 -158 409 -121 915 103 1410 50 112 161 322 183 346 8 8 14 19 14 22 0 4 24 41 53 83 28 42 59 86 67 98 39 58 204 274 289 380 53 65 105 131 116 145 11 15 54 67 95 115 41 49 91 108 110 132 19 23 114 136 210 250 188 224 188 224 300 371 211 277 440 669 550 942 139 344 156 732 49 1086 -43 142 -129 343 -199 464 -33 57 -60 106 -60 107 0 7 -149 223 -205 298 -33 43 -69 90 -80 105 -87 116 -162 199 -315 352 -155 154 -236 228 -494 452 -173 150 -387 307 -419 307 -15 0 -14 -7 7 -55z" fill="#ffffff"/>
<path d="M18975 22120 c-9 -15 -1 -45 40 -150 56 -144 78 -278 79 -475 0 -184 -10 -260 -65 -460 -38 -141 -69 -224 -132 -355 -114 -235 -176 -331 -418 -646 -24 -30 -154 -185 -264 -314 -22 -26 -64 -76 -93 -111 -28 -35 -112 -135 -185 -222 -212 -255 -272 -329 -317 -393 -8 -12 -34 -47 -58 -78 -102 -134 -243 -359 -304 -486 -163 -338 -233 -573 -258 -867 -23 -268 25 -564 120 -738 70 -128 96 -169 142 -221 42 -49 106 -104 120 -104 2 0 4 84 4 188 -1 157 3 204 22 294 26 127 98 333 143 415 18 32 41 74 52 93 25 45 114 173 190 273 93 124 197 238 546 603 477 498 506 532 653 754 214 323 345 665 398 1040 54 378 52 798 -5 1075 -41 200 -112 411 -191 567 -28 55 -177 293 -199 316 -9 10 -15 11 -20 2z" fill="#ffffff"/>
<path d="M4866 19615 c-3 -8 -1 -15 4 -15 6 0 10 7 10 15 0 8 -2 15 -4 15 -2 0 -6 -7 -10 -15z" fill="#ffffff"/>
<path d="M4862 19570 c0 -14 2 -19 5 -12 2 6 2 18 0 25 -3 6 -5 1 -5 -13z" fill="#ffffff"/>
<path d="M19540 19229 c0 -12 7 -67 16 -123 24 -150 15 -396 -20 -531 -36 -136 -56 -188 -134 -343 -75 -149 -175 -289 -338 -472 -120 -135 -398 -409 -539 -530 -88 -76 -124 -107 -231 -201 -16 -14 -66 -65 -112 -113 -222 -235 -335 -439 -387 -694 -33 -166 -57 -442 -37 -442 4 0 45 57 91 126 137 205 329 381 634 583 60 39 110 71 112 71 2 0 30 17 62 38 32 21 92 60 133 87 120 76 148 96 256 175 56 41 139 102 185 135 277 198 543 566 655 906 25 78 27 96 28 254 1 193 -17 304 -80 494 -56 167 -110 286 -217 478 -25 46 -49 92 -52 103 -8 26 -25 26 -25 -1z" fill="#ffffff"/>
<path d="M9040 13561 c0 -9 8 -28 18 -41 15 -23 17 -66 20 -484 3 -446 2 -460 -19 -523 -11 -35 -19 -66 -17 -68 2 -2 87 -5 188 -5 127 -1 186 2 188 9 2 6 -4 33 -13 59 -20 58 -36 522 -17 522 17 0 19 -3 171 -360 114 -267 118 -271 179 -216 39 36 53 62 122 231 94 231 145 335 166 342 7 2 9 -64 7 -219 -4 -207 -12 -282 -40 -355 -4 -10 33 -13 186 -13 214 0 222 3 179 62 l-23 33 0 475 0 475 24 32 c44 59 36 61 -186 56 -109 -3 -203 -10 -210 -15 -7 -5 -19 -31 -27 -56 -8 -26 -49 -128 -91 -227 -42 -99 -84 -202 -92 -230 -16 -51 -30 -75 -43 -75 -10 0 -49 82 -138 295 -41 99 -85 203 -97 232 -36 86 -22 82 -241 81 -174 0 -194 -2 -194 -17z" fill="#ffffff"/>
<path d="M10734 13565 c-3 -8 3 -30 15 -48 21 -34 21 -45 21 -498 0 -454 0 -465 -22 -516 -12 -29 -19 -56 -15 -59 7 -7 369 -6 376 2 2 2 -3 31 -12 64 -15 51 -17 121 -18 503 0 422 1 447 20 497 11 29 18 57 15 62 -3 4 -88 8 -190 8 -153 0 -186 -2 -190 -15z" fill="#ffffff"/>
<path d="M11671 13564 c-14 -6 -68 -54 -118 -107 l-93 -96 0 -351 0 -351 92 -95 c51 -53 105 -102 120 -110 20 -11 73 -14 211 -14 195 0 241 8 269 49 7 10 46 53 86 96 l73 77 -3 97 -3 96 -145 0 -145 0 -5 -78 c-3 -54 -10 -81 -20 -87 -8 -5 -54 -10 -102 -10 -136 0 -128 -21 -128 330 0 351 -8 330 129 330 60 0 92 -4 99 -13 6 -7 15 -48 21 -91 5 -43 14 -83 19 -88 6 -6 33 3 73 23 35 18 89 36 119 40 66 9 90 33 90 91 0 52 -18 84 -82 143 -29 28 -67 67 -85 88 -24 29 -39 37 -65 37 -328 5 -384 4 -407 -6z" fill="#ffffff"/>
<path d="M12655 13570 c-3 -5 3 -27 15 -49 19 -39 20 -57 20 -504 0 -452 -1 -466 -21 -516 -12 -28 -19 -54 -16 -58 9 -8 370 -4 379 5 3 4 -2 34 -12 66 -14 44 -20 95 -21 193 -2 154 2 164 56 144 59 -21 135 -24 189 -7 76 23 79 18 71 -138 -6 -132 -21 -233 -37 -242 -30 -19 11 -24 187 -24 218 0 209 -4 175 73 -20 45 -20 62 -18 517 2 329 6 473 14 478 6 4 17 18 24 31 10 19 10 25 -1 32 -18 11 -376 12 -383 1 -2 -4 3 -26 13 -47 14 -31 19 -78 24 -213 6 -197 8 -191 -77 -216 -72 -21 -99 -20 -173 6 -49 17 -63 26 -64 42 -1 12 0 86 1 166 1 110 6 158 20 200 10 30 16 58 14 62 -7 12 -372 10 -379 -2z" fill="#ffffff"/>
<path d="M14288 13572 c-16 -3 -16 -5 0 -38 16 -35 16 -39 -26 -202 -24 -92 -77 -301 -118 -465 -46 -183 -86 -320 -105 -356 -16 -33 -29 -62 -29 -66 0 -3 77 -4 172 -3 l172 3 -3 53 c-4 78 27 200 53 209 29 9 76 4 109 -13 24 -13 34 -13 79 1 63 18 102 19 116 3 12 -15 32 -149 32 -217 l0 -48 158 4 c86 3 162 6 168 8 7 2 1 25 -17 62 -15 32 -40 103 -54 158 -15 55 -33 125 -41 155 -8 30 -23 91 -33 135 -11 44 -45 179 -76 300 -53 208 -58 246 -40 301 l7 22 -254 -2 c-139 0 -261 -2 -270 -4z m262 -314 c7 -18 20 -53 30 -78 24 -58 50 -161 50 -194 0 -32 -27 -47 -90 -48 -88 -2 -95 20 -55 171 14 52 25 111 25 131 0 59 21 68 40 18z" fill="#ffffff"/>
<path d="M15426 13573 c-2 -2 7 -23 20 -46 l24 -42 0 -461 c0 -460 -2 -486 -35 -566 -7 -17 13 -18 338 -18 301 0 348 2 361 16 9 8 16 21 16 27 0 7 13 55 29 107 56 183 56 212 1 153 -45 -47 -97 -61 -243 -67 -73 -2 -140 -1 -148 4 -11 7 -14 33 -14 109 0 55 3 103 7 106 4 4 60 8 125 9 65 0 119 4 121 9 1 4 2 62 2 128 l0 122 -113 -6 c-63 -3 -119 -2 -125 2 -17 10 -20 170 -3 180 7 5 70 6 140 4 95 -4 135 -10 163 -24 38 -19 83 -25 91 -11 3 4 -8 41 -24 82 -16 41 -35 99 -41 128 -7 28 -17 52 -23 52 -5 0 -157 1 -337 3 -180 2 -330 2 -332 0z" fill="#ffffff"/>
<path d="M16584 13571 c-10 -11 -2 -37 19 -59 l22 -24 0 -473 c0 -470 0 -474 -22 -503 -12 -16 -23 -38 -25 -48 -3 -18 9 -19 312 -21 173 -2 320 1 327 5 7 4 24 47 38 96 14 48 36 114 50 146 14 33 25 64 25 69 0 6 -19 -3 -42 -18 -63 -42 -125 -60 -235 -67 -81 -5 -101 -3 -111 9 -10 12 -12 105 -10 409 3 334 5 398 19 428 9 19 17 40 17 45 2 10 -374 15 -384 6z" fill="#ffffff"/>
<path d="M18594 13570 c-23 -8 -152 -130 -190 -179 l-34 -44 0 -338 0 -337 39 -50 c22 -27 76 -82 121 -121 67 -59 85 -71 103 -65 12 5 100 7 195 7 l173 -1 42 37 c51 45 100 93 149 148 l37 42 -1 333 c0 255 -3 339 -13 358 -8 14 -56 68 -109 119 l-95 95 -201 0 c-110 1 -207 -1 -216 -4z m268 -230 c21 -6 42 -19 48 -30 6 -11 10 -131 10 -304 0 -279 0 -286 -21 -305 -26 -24 -92 -36 -149 -26 -71 12 -75 25 -76 280 0 241 6 349 23 366 25 25 109 34 165 19z" fill="#ffffff"/>
<path d="M19666 13548 c-28 -19 -65 -56 -84 -83 l-34 -50 4 -158 3 -158 75 -73 c84 -82 81 -81 289 -120 165 -30 174 -37 179 -134 6 -99 9 -97 -217 -96 -165 1 -192 4 -239 23 -65 26 -86 27 -79 4 4 -10 20 -61 37 -113 17 -52 35 -106 38 -120 l7 -25 285 -2 c158 -2 300 2 320 7 22 6 56 31 90 65 l55 56 6 172 c7 229 2 248 -90 320 -64 50 -74 54 -192 81 -221 49 -269 72 -269 125 1 61 30 71 204 71 97 0 160 -5 188 -14 64 -20 98 -27 108 -21 4 3 -2 31 -15 63 -14 31 -34 90 -45 130 l-21 72 -233 0 c-128 0 -253 3 -277 6 -39 5 -50 2 -93 -28z" fill="#ffffff"/>
<path d="M20743 13563 c-3 -7 6 -27 19 -45 l23 -33 3 -463 3 -464 -31 -52 c-16 -29 -27 -56 -23 -59 9 -10 393 -9 393 1 0 4 -9 34 -20 66 -16 48 -20 86 -20 198 0 158 0 159 77 133 52 -18 151 -15 199 7 38 18 44 0 44 -141 0 -97 -5 -139 -21 -194 -17 -57 -18 -71 -7 -78 7 -5 18 -7 25 -5 20 8 277 9 306 1 33 -9 34 1 12 90 -13 52 -15 133 -13 511 3 406 5 452 20 479 38 65 39 65 -172 65 -210 0 -207 1 -173 -63 14 -25 18 -67 21 -205 3 -121 1 -176 -7 -186 -7 -8 -41 -22 -76 -31 -72 -20 -132 -16 -192 12 l-38 18 0 180 c0 166 2 183 22 222 12 23 18 45 13 48 -5 3 -93 4 -196 3 -135 -2 -188 -6 -191 -15z" fill="#ffffff"/>
<path d="M22263 13572 c-113 -2 -163 -6 -163 -14 0 -6 11 -26 25 -44 l25 -33 0 -475 0 -475 -30 -31 c-33 -34 -37 -45 -17 -53 18 -7 376 -9 387 -2 6 4 4 15 -4 28 -31 48 -36 129 -36 530 0 411 7 506 36 538 32 36 33 36 -223 31z" fill="#ffffff"/>
<path d="M23010 13570 c-171 -5 -183 -6 -163 -21 12 -8 27 -28 33 -43 6 -18 10 -194 10 -497 0 -492 -3 -529 -45 -545 -8 -3 -15 -9 -15 -13 0 -10 296 -14 365 -6 l53 7 -27 51 c-26 51 -26 52 -25 269 0 120 4 221 8 225 12 12 33 -20 61 -92 15 -38 44 -106 65 -150 58 -124 127 -278 133 -297 5 -14 27 -17 181 -18 194 -1 191 -2 159 61 -16 31 -18 76 -18 509 l0 475 24 38 c20 32 22 40 10 48 -8 5 -96 9 -196 9 -203 0 -196 3 -167 -66 21 -48 34 -434 16 -434 -10 0 -173 323 -227 447 -10 23 -25 43 -34 45 -9 2 -99 1 -201 -2z" fill="#ffffff"/>
<path d="M24541 13570 l-184 -5 -93 -100 -94 -100 0 -357 0 -356 95 -97 c61 -61 107 -100 128 -106 52 -15 386 -10 416 6 25 13 98 85 170 167 l32 37 1 344 c1 200 -3 350 -8 360 -6 10 -49 58 -98 107 -62 63 -98 92 -124 100 -20 5 -41 9 -47 8 -5 -1 -93 -5 -194 -8z m150 -240 c18 -10 19 -24 19 -321 l0 -309 -26 -10 c-14 -6 -63 -10 -109 -10 -74 0 -86 2 -95 20 -7 14 -11 120 -10 312 1 349 -7 328 117 328 46 0 93 -5 104 -10z" fill="#ffffff"/>
<path d="M28686 13360 c-39 -133 -40 -139 -22 -106 9 15 16 36 16 45 0 9 4 21 8 27 14 16 34 90 30 110 -2 10 -16 -24 -32 -76z" fill="#ffffff"/>
<path d="M28631 13185 c-1 -5 -8 -31 -16 -57 -8 -27 -12 -48 -10 -48 10 0 36 76 32 95 -2 11 -5 16 -6 10z" fill="#ffffff"/>
<path d="M28542 12909 c-100 -291 -219 -605 -312 -824 -64 -150 -145 -336 -179 -410 -18 -38 -44 -95 -58 -125 -77 -166 -174 -353 -280 -538 -29 -51 -53 -94 -53 -96 0 -4 -154 -271 -170 -296 -5 -8 -19 -33 -31 -55 -12 -22 -35 -59 -50 -82 -16 -23 -29 -44 -29 -47 0 -7 -156 -256 -219 -350 -25 -38 -50 -76 -56 -85 -5 -9 -13 -18 -16 -21 -13 -12 -69 -99 -69 -108 0 -6 -4 -12 -8 -14 -10 -4 -75 -98 -68 -98 13 0 197 265 388 560 56 86 296 489 392 658 79 138 266 501 266 516 0 3 11 29 24 58 13 29 39 89 59 133 42 93 104 231 117 260 26 55 104 238 126 295 14 36 38 97 54 135 16 39 33 86 39 105 5 19 21 67 36 105 15 39 33 93 41 120 7 28 18 59 23 70 12 26 47 131 56 170 3 17 13 44 22 62 8 18 13 37 11 44 -2 6 -28 -58 -56 -142z" fill="#ffffff"/>
<path d="M5680 11815 c0 -3 4 -13 10 -23 12 -22 70 -151 70 -157 0 -11 192 -421 253 -540 28 -55 79 -147 112 -205 34 -58 81 -141 104 -185 24 -44 69 -120 101 -170 31 -49 75 -119 96 -154 31 -51 498 -755 554 -835 63 -91 379 -506 462 -607 109 -134 122 -149 312 -358 504 -559 751 -805 1161 -1157 185 -159 216 -184 570 -458 224 -173 483 -360 700 -507 127 -86 537 -338 643 -395 29 -16 69 -38 90 -49 20 -11 91 -50 157 -86 148 -82 306 -161 311 -156 4 3 -158 96 -311 177 -44 24 -92 51 -107 62 -14 10 -29 18 -32 18 -3 0 -30 15 -59 34 -29 19 -145 90 -258 158 -190 116 -356 226 -502 334 -34 25 -105 75 -158 112 -52 37 -187 137 -298 222 -112 85 -261 199 -332 253 -70 54 -176 141 -236 195 -59 53 -191 171 -293 262 -255 226 -860 841 -990 1006 -31 39 -231 272 -286 334 -71 79 -215 262 -349 445 -71 97 -172 234 -224 304 -162 218 -451 661 -548 841 -7 14 -49 79 -93 145 -75 114 -161 252 -210 340 -13 22 -52 92 -88 155 -60 106 -134 255 -268 538 -46 97 -64 127 -64 107z" fill="#ffffff"/>
<path d="M27751 11402 c-6 -12 -11 -27 -11 -34 1 -7 8 0 16 15 9 16 13 31 11 34 -3 2 -10 -4 -16 -15z" fill="#ffffff"/>
<path d="M15443 11314 c-17 -26 -18 -63 -21 -474 -1 -245 1 -476 5 -515 l8 -70 35 -3 c19 -1 40 1 47 6 9 5 12 97 13 352 2 331 4 390 19 390 3 0 34 -55 67 -122 96 -193 247 -488 279 -543 40 -71 55 -85 84 -85 59 1 56 -27 56 535 0 505 0 517 -20 531 -11 8 -31 14 -45 12 -25 -3 -25 -5 -31 -113 -4 -60 -8 -226 -9 -367 -2 -250 -5 -298 -19 -298 -4 0 -27 42 -51 93 -56 119 -306 623 -329 662 -24 42 -64 45 -88 9z" fill="#ffffff"/>
<path d="M16465 11333 c-39 -2 -73 -9 -77 -16 -4 -7 -8 -249 -8 -539 l0 -528 253 0 c138 0 258 4 266 9 12 8 13 18 5 48 l-9 38 -200 6 c-110 3 -201 6 -202 7 -8 6 -1 359 6 371 6 10 37 13 128 12 66 -1 139 1 161 5 l42 7 0 47 c0 29 -5 50 -12 52 -7 3 -80 6 -162 6 -110 1 -152 5 -158 14 -9 15 -11 308 -2 332 5 14 32 16 200 16 190 0 195 1 203 21 4 12 5 38 2 58 l-6 36 -180 1 c-99 0 -211 -1 -250 -3z" fill="#ffffff"/>
<path d="M17470 11332 c-129 -1 -238 -6 -241 -10 -4 -4 -9 -245 -11 -537 l-3 -530 243 -3 c156 -1 250 1 262 8 22 12 26 41 10 71 -10 18 -23 19 -188 19 -97 0 -187 3 -199 6 -23 6 -23 8 -23 195 l0 189 168 2 167 3 0 55 0 55 -150 1 c-83 0 -158 3 -168 7 -15 6 -17 25 -17 181 l0 176 203 2 202 3 3 51 c2 36 -1 53 -10 55 -7 2 -119 3 -248 1z" fill="#ffffff"/>
<path d="M17972 11280 l3 -55 117 -1 c64 -1 124 -4 132 -7 14 -6 16 -62 18 -484 l3 -478 36 -3 c66 -6 64 -21 66 496 1 255 5 467 8 471 4 3 28 6 53 7 177 2 191 4 196 22 3 9 2 33 -2 52 l-8 35 -312 0 -313 0 3 -55z" fill="#ffffff"/>
<path d="M26915 9729 c-4 -6 -5 -12 -2 -15 2 -3 7 2 10 11 7 17 1 20 -8 4z" fill="#ffffff"/>
<path d="M25085 8769 c-200 -200 -473 -461 -635 -605 -123 -109 -171 -151 -226 -192 -33 -26 -98 -77 -144 -115 -45 -37 -90 -71 -99 -76 -9 -5 -14 -12 -11 -14 3 -2 70 45 150 105 80 60 183 136 230 168 122 84 287 230 415 366 61 65 208 219 328 343 188 193 248 261 235 261 -2 0 -111 -108 -243 -241z" fill="#ffffff"/>
<path d="M9633 7412 c4 -6 22 -21 39 -34 17 -12 28 -17 25 -10 -4 6 -22 21 -39 34 -17 12 -28 17 -25 10z" fill="#ffffff"/>
<path d="M9739 7326 c13 -16 51 -41 51 -33 0 2 -15 14 -32 27 -21 15 -28 17 -19 6z" fill="#ffffff"/>
<path d="M9811 7273 c0 -4 13 -18 30 -31 16 -13 29 -20 28 -15 0 4 -13 18 -30 31 -16 13 -29 20 -28 15z" fill="#ffffff"/>
<path d="M9977 7139 c7 -7 15 -10 18 -7 3 3 -2 9 -12 12 -14 6 -15 5 -6 -5z" fill="#ffffff"/>
<path d="M10040 7090 c19 -17 85 -67 145 -110 61 -44 148 -107 195 -142 153 -111 598 -403 704 -462 21 -11 46 -25 55 -31 195 -120 685 -376 976 -510 112 -51 255 -115 260 -115 3 0 24 -9 48 -20 79 -36 321 -132 482 -190 309 -111 879 -290 1053 -331 113 -26 150 -20 47 8 -277 75 -451 126 -500 147 -35 15 -29 13 -285 105 -107 38 -242 84 -300 102 -148 46 -304 109 -695 284 -16 7 -58 25 -92 39 -35 14 -89 38 -120 52 -73 33 -530 259 -563 279 -14 8 -74 43 -135 76 -60 34 -135 75 -165 92 -81 45 -392 241 -494 311 -88 61 -268 185 -408 281 -196 136 -240 164 -208 135z" fill="#ffffff"/>
<path d="M11210 6990 c0 -5 5 -10 10 -10 6 0 10 5 10 10 0 6 -4 10 -10 10 -5 0 -10 -4 -10 -10z" fill="#ffffff"/>
<path d="M11310 6931 c14 -11 30 -21 35 -21 11 0 -7 14 -40 31 -13 7 -12 3 5 -10z" fill="#ffffff"/>
<path d="M11690 6710 c0 -5 5 -10 11 -10 5 0 7 5 4 10 -3 6 -8 10 -11 10 -2 0 -4 -4 -4 -10z" fill="#ffffff"/>
<path d="M21120 6131 c-20 -12 -102 -45 -175 -71 -33 -12 -67 -25 -75 -29 -12 -6 -207 -69 -299 -97 -8 -3 -11 -7 -8 -10 3 -3 29 2 59 11 29 9 67 21 83 25 34 10 236 81 368 130 48 18 87 37 87 41 0 11 -20 11 -40 0z" fill="#ffffff"/>
<path d="M12460 5258 c104 -52 140 -68 350 -150 297 -117 514 -199 570 -216 199 -61 474 -138 530 -148 67 -13 247 -53 263 -59 9 -4 17 -3 17 1 0 5 -46 22 -103 37 -56 16 -113 33 -127 37 -14 5 -79 25 -145 45 -66 20 -165 52 -220 70 -55 18 -174 56 -265 85 -91 28 -196 62 -235 75 -38 14 -113 38 -165 54 -105 33 -218 74 -267 96 -17 8 -36 15 -42 15 -7 0 -22 6 -34 14 -19 13 -155 69 -197 82 -8 2 23 -15 70 -38z" fill="#ffffff"/>
<path d="M14115 5150 c28 -12 57 -12 50 0 -3 6 -21 10 -38 9 -27 0 -29 -2 -12 -9z" fill="#ffffff"/>
<path d="M14218 5133 c7 -3 16 -2 19 1 4 3 -2 6 -13 5 -11 0 -14 -3 -6 -6z" fill="#ffffff"/>
<path d="M19495 4870 c-19 -8 -19 -9 2 -9 12 -1 25 4 28 9 7 12 -2 12 -30 0z" fill="#ffffff"/>
<path d="M19360 4850 c-85 -20 -324 -64 -545 -99 -242 -39 -355 -52 -630 -71 -153 -11 -307 -27 -540 -56 -108 -14 -237 -17 -747 -18 -339 -1 -619 -4 -623 -7 -23 -23 1211 -23 1425 0 156 17 493 49 590 56 119 9 326 33 385 45 28 6 127 24 220 40 94 17 213 40 265 51 52 11 138 29 190 40 52 11 100 21 105 24 19 7 -60 3 -95 -5z" fill="#ffffff"/>
<path d="M14245 4670 c3 -5 8 -10 11 -10 2 0 4 5 4 10 0 6 -5 10 -11 10 -5 0 -7 -4 -4 -10z" fill="#ffffff"/>
</g>
</svg>