<svg version="1.1" xmlns="http://www.w3.org/2000/svg" xmlns:xlink="http://www.w3.org/1999/xlink" width="800px" height="800px" viewBox="0,0,256,256"><g fill="#f5f5dc" fill-rule="nonzero" stroke="none" stroke-width="1" stroke-linecap="butt" stroke-linejoin="miter" stroke-miterlimit="10" stroke-dasharray="" stroke-dashoffset="0" font-family="none" font-weight="none" font-size="none" text-anchor="none" style="mix-blend-mode: normal"><g transform="scale(0.5,0.5)"><g><g><path d="M459.473,398.099h-53.08c-4.58,0 -8.294,3.713 -8.294,8.294c0,4.58 3.713,8.294 8.294,8.294h28.889c-45.501,51.473 -110.09,80.726 -179.282,80.726c-63.949,0 -124.071,-24.903 -169.291,-70.122c-45.218,-45.22 -70.122,-105.342 -70.122,-169.291c0,-38.695 9.443,-77.13 27.307,-111.149c2.13,-4.055 0.568,-9.069 -3.487,-11.199c-4.055,-2.131 -9.07,-0.57 -11.199,3.487c-19.107,36.388 -29.208,77.49 -29.208,118.861c0,68.38 26.628,132.668 74.981,181.019c48.353,48.351 112.639,74.981 181.019,74.981c75.775,0 146.375,-32.824 195.179,-90.365v37.838c0,4.58 3.713,8.294 8.294,8.294c4.58,0 8.294,-3.713 8.294,-8.294v-53.08c0,-4.58 -3.714,-8.294 -8.294,-8.294z"></path></g></g><g><g><path d="M437.019,74.981c-48.351,-48.353 -112.639,-74.981 -181.019,-74.981c-40.549,0 -79.333,9.206 -115.277,27.364c-30.38,15.347 -57.772,36.991 -79.902,63.007v-37.844c0,-4.58 -3.713,-8.294 -8.294,-8.294c-4.58,0 -8.294,3.713 -8.294,8.294v53.08c0,4.58 3.713,8.294 8.294,8.294h53.08c4.58,0 8.294,-3.713 8.294,-8.294c0,-4.58 -3.713,-8.294 -8.294,-8.294h-28.836c20.1,-22.646 44.508,-41.543 71.431,-55.144c33.603,-16.975 69.872,-25.582 107.798,-25.582c63.949,0 124.071,24.903 169.291,70.122c45.219,45.22 70.122,105.341 70.122,169.291c0,38.695 -9.443,77.13 -27.307,111.149c-2.13,4.055 -0.568,9.069 3.487,11.199c1.231,0.646 2.549,0.952 3.848,0.952c2.984,0 5.866,-1.615 7.349,-4.44c19.109,-36.387 29.21,-77.489 29.21,-118.86c0,-68.38 -26.628,-132.668 -74.981,-181.019z"></path></g></g><g><g><path d="M379.853,141.546h-247.706c-19.207,0 -34.834,15.626 -34.834,34.834v168.086c0,19.207 15.627,34.834 34.834,34.834h247.706c19.207,0 34.834,-15.627 34.834,-34.834v-168.086c0,-19.207 -15.627,-34.834 -34.834,-34.834zM132.147,158.134h247.706c1.699,0 3.336,0.251 4.897,0.687l-110.182,103.7c-10.413,9.799 -26.725,9.8 -37.137,0l-110.181,-103.7c1.562,-0.436 3.199,-0.687 4.897,-0.687zM113.901,344.466v-168.086c0,-2.208 0.414,-4.316 1.136,-6.276l95.963,90.32l-95.964,90.319c-0.722,-1.96 -1.135,-4.068 -1.135,-6.277zM379.853,362.713h-247.706v0c-1.699,0 -3.336,-0.251 -4.897,-0.687l95.851,-90.214l2.961,2.788c8.393,7.9 19.165,11.849 29.937,11.849c10.772,0 21.544,-3.95 29.937,-11.849l2.961,-2.788l95.851,90.214c-1.56,0.436 -3.197,0.687 -4.895,0.687zM398.099,344.466c0,2.208 -0.414,4.316 -1.136,6.276l-95.963,-90.32l95.964,-90.318c0.722,1.961 1.136,4.068 1.136,6.276v168.086z"></path></g></g></g></g></svg>