<svg version="1.0" xmlns="http://www.w3.org/2000/svg" width="452.000000pt" height="452.000000pt" viewBox="0 0 452.000000 452.000000" preserveAspectRatio="xMidYMid meet">

<g transform="translate(0.000000,452.000000) scale(0.100000,-0.100000)" fill="#ff4757" stroke="none">
<path d="M1030 4131 c-105 -33 -212 -129 -252 -229 -23 -57 -23 -60 -26 -568 l-3 -511 -53 -6 c-115 -12 -230 -99 -284 -215 l-27 -57 0 -570 0 -570 29 -60 c54 -110 154 -185 278 -208 l56 -11 4 -226 c4 -205 6 -230 27 -282 30 -76 107 -161 185 -201 l61 -32 1235 0 1235 0 58 30 c76 38 158 126 189 202 l23 58 3 1228 c2 870 -1 1240 -9 1270 -9 37 -66 98 -457 491 -254 254 -461 454 -479 462 -27 12 -178 14 -900 13 -477 0 -879 -4 -893 -8z m1610 -681 c3 -220 9 -321 17 -336 21 -36 81 -82 120 -93 23 -7 156 -11 326 -11 l287 0 0 -95 0 -95 -1130 0 -1130 0 0 475 0 475 753 -2 752 -3 5 -315z m-1489 -1026 c104 -48 164 -143 163 -259 -1 -84 -18 -128 -74 -189 -57 -62 -116 -87 -217 -94 l-83 -5 0 -183 0 -184 -95 0 -95 0 0 471 0 471 178 -4 c155 -3 183 -6 223 -24z m1859 -69 l0 -95 -185 0 -185 0 0 -95 0 -95 150 0 150 0 0 -95 0 -95 -150 0 -150 0 0 -185 0 -185 -95 0 -95 0 0 470 0 470 280 0 280 0 0 -95z m-1045 70 c126 -33 223 -115 268 -225 19 -49 22 -73 22 -225 0 -154 -3 -175 -23 -227 -28 -71 -94 -145 -159 -181 -88 -48 -149 -57 -365 -57 l-198 0 0 465 0 465 198 0 c145 0 213 -4 257 -15z m1425 -1485 l0 -190 -1130 0 -1130 0 0 190 0 190 1130 0 1130 0 0 -190z" fill="#ff4757"/>
<path d="M940 2166 l0 -96 55 0 c31 0 69 7 84 15 54 27 65 111 20 151 -15 13 -41 20 -90 22 l-69 4 0 -96z" fill="#ff4757"/>
<path d="M1695 2249 c-3 -8 -4 -136 -3 -284 l3 -270 100 3 c119 3 180 21 223 65 45 47 52 75 52 213 0 142 -9 173 -63 221 -45 40 -86 51 -209 59 -79 6 -99 4 -103 -7z" fill="#ff4757"/>
</g>
</svg>